<svg width="87" height="56" viewBox="0 0 87 56" fill="none" xmlns="http://www.w3.org/2000/svg">
<path d="M45.2071 18.2688L44.2273 17.6468C44.0613 17.5411 43.8698 17.5132 43.6911 17.5538C43.5123 17.594 43.3512 17.7022 43.2454 17.8686L32.968 34.0816C32.8622 34.2477 32.8344 34.4391 32.8749 34.6179C32.9151 34.7966 33.0234 34.9577 33.1898 35.0635L34.1695 35.6854C34.3356 35.7912 34.5295 35.819 34.7086 35.7785C34.8849 35.7383 35.046 35.6326 35.1518 35.4662L45.4292 19.2532C45.5349 19.0871 45.5628 18.8957 45.5223 18.7169C45.4821 18.5382 45.3738 18.377 45.2074 18.2713L45.2071 18.2688ZM67.3058 24.6175C67.3636 24.2674 67.6936 24.0333 68.0437 24.0911C68.3938 24.149 68.6279 24.4789 68.5701 24.829L66.4723 42.3375C66.4145 42.6876 66.0845 42.9217 65.7344 42.8639C65.3843 42.8061 65.1502 42.4761 65.208 42.126L67.3058 24.6175ZM58.3862 23.8721C58.3837 23.5196 58.6683 23.2301 59.0208 23.2273C59.3734 23.2249 59.6629 23.5094 59.6656 23.8619L59.789 42.292C59.7915 42.6446 59.507 42.9341 59.1544 42.9368C58.8019 42.9393 58.5124 42.6548 58.5096 42.3022L58.3862 23.8721ZM49.9092 24.6175C49.8489 24.2674 50.0855 23.9374 50.4331 23.8771C50.7832 23.8168 51.1132 24.0534 51.1735 24.401L53.3696 42.1209C53.4299 42.471 53.1933 42.801 52.8457 42.8613C52.4956 42.9216 52.1656 42.685 52.1053 42.3374L49.9092 24.6175ZM66.5022 0.864881C66.7113 1.67822 67.1946 2.30297 67.9579 2.74088C68.7967 3.22179 69.9651 3.48869 71.461 3.54686C70.9953 2.65798 70.3755 1.99064 69.6026 1.54743C68.7614 1.06404 67.7266 0.837345 66.5 0.864873L66.5022 0.864881ZM67.5348 3.48407C66.3865 2.82688 65.7318 1.83443 65.5679 0.512325L65.5125 0.06667L65.9634 0.0338877C67.575 -0.0845626 68.9324 0.17244 70.0306 0.804587C70.9801 1.34859 71.7304 2.16691 72.2768 3.2549C72.3223 3.14914 72.3724 3.04584 72.4281 2.94501C72.8762 2.14434 73.6092 1.6028 74.677 1.0588C74.8886 0.950557 75.1456 1.03623 75.2538 1.24529C75.3621 1.45684 75.2764 1.71384 75.0673 1.82208C74.1482 2.29063 73.5262 2.73874 73.1761 3.36073C72.8514 3.94246 72.7379 4.71315 72.8186 5.83614L72.8564 5.81356L72.9949 5.72542C73.9367 5.13348 75.3345 4.25732 77.1577 4.94482C78.6183 5.49872 79.5727 6.42559 80.1418 7.54889C80.7965 8.84321 80.9248 10.392 80.7235 11.9207C80.7108 12.0064 80.6103 12.5352 80.5246 12.9834L80.5021 13.1018H82.6478C83.3025 13.1018 83.8994 13.3687 84.3299 13.802C84.7604 14.2325 85.0301 14.8294 85.0301 15.4841V18.6346C85.0301 19.2894 84.7632 19.8863 84.3299 20.3168C83.8994 20.7473 83.3025 21.0169 82.6478 21.0169L82.6404 21.0145L78.8101 20.9566L86.6924 33.3947C86.9847 33.858 87.0626 34.3994 86.9519 34.898V34.9005C86.8412 35.399 86.539 35.8574 86.0755 36.1496L85.0957 36.7715C84.6324 37.0663 84.0909 37.1417 83.5924 37.031C83.0914 36.9178 82.633 36.6181 82.3407 36.1546L77.2236 28.0805L74.3598 46.4814C74.2515 47.7909 73.6949 48.7682 72.9016 49.443C71.9976 50.2112 70.7911 50.5663 69.6051 50.5663H48.9784C47.7948 50.5663 46.6137 50.2137 45.7172 49.4507C44.9264 48.7784 44.3648 47.8063 44.2262 46.4966L41.1459 28.418L36.2427 36.1543C35.9505 36.6176 35.4921 36.9173 34.9911 37.0308C34.4925 37.1415 33.951 37.066 33.4878 36.7713L32.508 36.1493C32.0447 35.8546 31.745 35.3987 31.6316 34.9002V34.8978C31.5208 34.3992 31.5963 33.8577 31.891 33.3944L39.7758 20.954L37.9224 21.0143L37.9023 21.0168H35.9353C35.2806 21.0168 34.6837 20.7499 34.2532 20.3166C33.8227 19.8861 33.553 19.2892 33.553 18.6345V15.484C33.553 14.8293 33.8199 14.2323 34.2532 13.8019C34.6837 13.3714 35.2807 13.1017 35.9353 13.1017H38.3377V9.47519L38.3603 9.34438L39.2593 6.61197V2.42136C39.2593 2.16188 39.3651 1.92529 39.5364 1.75643C39.7078 1.58509 39.9419 1.47933 40.2014 1.47933H52.4375C52.697 1.47933 52.9311 1.58509 53.1 1.75643H53.1024C53.2738 1.92777 53.3795 2.16188 53.3795 2.42136V6.61197L54.2785 9.34438L54.3011 9.47519V13.1017H55.2481V9.21329L55.3387 8.95134L57.6378 5.96724C57.8039 5.75323 58.0232 5.60199 58.2675 5.529C58.5118 5.45354 58.7762 5.45354 59.0329 5.53921L62.6947 6.74287C62.8583 6.79576 63.0046 6.87896 63.1304 6.98719C63.2563 7.09543 63.3571 7.22904 63.4351 7.38522V7.38769C63.513 7.54388 63.556 7.705 63.5659 7.8686C63.5761 8.03468 63.5507 8.19859 63.4929 8.36467C63.3215 8.84806 63.3064 9.78233 63.3543 10.7645C63.3921 11.5829 63.4753 12.4392 63.5458 13.1017H64.1603L64.1476 13.0337C64.0644 12.5729 63.9586 12.001 63.9512 11.9333C63.7471 10.4021 63.8758 8.85337 64.5305 7.55415C65.0995 6.42839 66.0539 5.49906 67.5171 4.94517C69.3402 4.25519 70.7382 5.13413 71.6798 5.72576L71.8184 5.81391C71.8738 5.84916 71.9266 5.88195 71.9746 5.91225C71.9344 5.34568 71.9393 4.8496 71.9897 4.41138C70.0859 4.40117 68.6051 4.09159 67.5449 3.4845L67.5348 3.48407ZM59.3555 5.47606C59.1313 5.4006 59.0132 5.15627 59.0886 4.93453C59.1641 4.71032 59.4084 4.59217 59.6301 4.66763L62.8057 5.74296C63.0299 5.81842 63.148 6.06275 63.0726 6.28448C62.9971 6.5087 62.7528 6.62684 62.5311 6.55138L59.3555 5.47606ZM42.4703 5.07309C42.2338 5.07309 42.0423 4.88165 42.0423 4.64506C42.0423 4.40847 42.2338 4.21704 42.4703 4.21704H50.1613C50.3979 4.21704 50.5893 4.40848 50.5893 4.64506C50.5893 4.88165 50.3979 5.07309 50.1613 5.07309H42.4703ZM77.9888 19.6646L82.6451 19.7351V19.7327C82.9448 19.7327 83.2194 19.6093 83.4183 19.4104C83.6171 19.2115 83.7405 18.9369 83.7405 18.6372V15.4867C83.7405 15.1846 83.6171 14.9124 83.4183 14.7111C83.2194 14.5122 82.9448 14.3888 82.6451 14.3888H35.9324C35.6303 14.3888 35.3581 14.5122 35.1593 14.7111C34.9604 14.9099 34.837 15.1846 34.837 15.4867V18.6372C34.837 18.9369 34.9604 19.2115 35.1593 19.4104C35.3581 19.6093 35.6327 19.7327 35.9324 19.7327H37.8994V19.7351L40.6015 19.647L42.163 17.184C42.4577 16.7207 42.9136 16.421 43.4121 16.3076C43.9131 16.1944 44.4547 16.2723 44.918 16.567L45.8977 17.189C46.361 17.4837 46.6607 17.9396 46.7742 18.4381V18.4406C46.875 18.8887 46.8221 19.3699 46.5979 19.798L71.9727 19.7803C71.7563 19.3548 71.7058 18.8813 71.8067 18.4381V18.4357C71.9174 17.9371 72.2195 17.4788 72.6831 17.1865L73.6629 16.5646C74.1262 16.2699 74.6677 16.1944 75.1687 16.3051C75.6673 16.4158 76.1256 16.718 76.4178 17.1816L77.9917 19.6647L77.9888 19.6646ZM45.7948 21.0774L42.2466 26.6782L45.4982 46.3609C45.5991 47.3104 45.9918 48.0028 46.5432 48.4714C47.193 49.0228 48.0769 49.2798 48.976 49.2798H69.6027C70.5091 49.2798 71.4134 49.0203 72.0706 48.4615C72.6171 47.9982 73 47.3107 73.0779 46.3739L76.0827 26.2811L72.7711 21.0581L45.7922 21.0758L45.7948 21.0774ZM74.35 17.6501L73.3703 18.272C73.2042 18.3778 73.0956 18.5414 73.0554 18.7177C73.0152 18.8964 73.0428 19.0879 73.1485 19.2539L83.4259 35.4669C83.5317 35.633 83.6928 35.7416 83.8691 35.7818C84.0479 35.822 84.2418 35.7944 84.4082 35.6887L85.3879 35.0667C85.554 34.961 85.6626 34.7974 85.7028 34.6211C85.743 34.4423 85.7155 34.2509 85.6097 34.0848L75.3323 17.8718C75.2265 17.7057 75.0629 17.5972 74.8866 17.557C74.7103 17.5168 74.5161 17.5443 74.35 17.6501ZM79.6311 13.102L79.684 12.8249C79.7696 12.3768 79.8705 11.8503 79.8754 11.8127C80.0566 10.4401 79.9484 9.06513 79.3769 7.93692C78.9009 6.99516 78.095 6.21674 76.8536 5.74605C75.4257 5.207 74.2446 5.94739 73.4488 6.44871L73.3103 6.53685C72.9528 6.76355 72.7159 6.912 72.3633 6.93736H72.303C71.9504 6.91231 71.7138 6.76355 71.356 6.53685L71.2174 6.44871C70.4217 5.9477 69.2406 5.20728 67.8127 5.74605C66.5713 6.21707 65.7628 6.99516 65.2894 7.93938C64.7203 9.07004 64.6121 10.4476 64.7933 11.8226C64.8007 11.8779 64.9016 12.4346 64.9848 12.8828L65.025 13.1017H79.6339L79.6311 13.102ZM39.1944 13.102H53.4408V9.54104L52.5418 6.80863L52.5192 6.67781V2.42196C52.5192 2.39939 52.509 2.3765 52.4941 2.36166C52.479 2.3465 52.4564 2.3366 52.4338 2.3366H40.1977C40.1726 2.3366 40.1522 2.34681 40.1374 2.35918V2.36166C40.1222 2.37681 40.1123 2.39691 40.1123 2.42196V6.67781L40.0897 6.80863L39.1907 9.54104V13.102H39.1944ZM56.1025 13.102H62.6804C62.6123 12.4473 62.5319 11.6188 62.4939 10.8001C62.4435 9.72725 62.4688 8.68471 62.6804 8.08038C62.7005 8.02502 62.7082 7.96967 62.7054 7.91925V7.91678C62.7029 7.86636 62.6878 7.81348 62.6627 7.76307C62.6377 7.71018 62.6049 7.66472 62.5672 7.63225C62.5295 7.59947 62.4815 7.57442 62.4237 7.55432L58.7644 6.35065C58.6787 6.32282 58.5931 6.32035 58.5151 6.34571C58.4372 6.36828 58.3667 6.41869 58.311 6.48921L56.1025 9.35518L56.1025 13.102Z" fill="white"/>
<path d="M22.8493 53.9117C22.2441 54.0469 21.6409 53.9955 21.0557 53.7588C19.9472 53.3097 16.5491 51.1082 15.4025 47.9865C14.8185 46.3962 14.9176 44.8349 15.6971 43.3457C15.7588 43.244 16.9683 41.3355 18.8757 41.1137C19.7227 41.0151 20.0263 41.0681 20.2696 41.1104C20.5002 41.1502 20.6825 41.1821 21.5869 40.983C22.4875 40.7787 22.6388 40.6723 22.8301 40.5382C23.0328 40.3961 23.2847 40.2195 24.0929 39.9479C25.9095 39.3366 27.8216 40.5498 27.8968 40.5988C29.2586 41.6306 30.013 43.0013 30.1612 44.6894C30.4521 48.0029 28.314 51.4408 27.5018 52.3184C27.074 52.7815 26.5499 53.0848 25.9451 53.22C25.2759 53.3695 24.6675 53.2769 24.3133 53.1901C24.0301 53.4197 23.5197 53.762 22.8493 53.9118L22.8493 53.9117ZM18.7087 41.8979C17.2893 42.2151 16.3541 43.7001 16.3446 43.7153C15.6806 44.9866 15.5946 46.345 16.1027 47.7293C17.1495 50.579 20.3501 52.6678 21.3351 53.0674C21.7772 53.2458 22.2317 53.285 22.6866 53.1833C23.3558 53.0338 23.8357 52.6249 23.9671 52.5034C24.0652 52.4118 24.2053 52.3801 24.3338 52.4211C24.5044 52.475 25.1149 52.6406 25.7823 52.4915C26.2363 52.39 26.6307 52.1612 26.9543 51.8114C27.6761 51.0312 29.6832 47.7797 29.4178 44.7545C29.2887 43.2854 28.6329 42.0923 27.4681 41.2086C27.4666 41.209 25.8091 40.1557 24.3302 40.6547C23.6243 40.892 23.4298 41.028 23.258 41.1486C22.9702 41.3505 22.7244 41.4895 21.7488 41.7106C20.7693 41.926 20.4881 41.9048 20.1414 41.845C19.9349 41.809 19.7011 41.7683 18.9614 41.8545C18.8755 41.8647 18.7908 41.8794 18.7085 41.8978L18.7087 41.8979Z" fill="white"/>
<path d="M21.7009 41.5011C21.6835 41.505 21.6653 41.5079 21.6469 41.509C21.4415 41.5243 21.2625 41.3701 21.2472 41.1647C21.0461 38.4647 18.843 37.1365 18.8209 37.1231C18.6435 37.0186 18.5841 36.7902 18.6882 36.6126C18.7922 36.4349 19.0196 36.3746 19.1977 36.4789C19.3024 36.54 21.7607 38.0081 21.9915 41.1092C22.0054 41.2964 21.8786 41.4616 21.701 41.5013L21.7009 41.5011Z" fill="white"/>
<path d="M23.4419 39.8582C22.7832 40.0054 22.0379 39.9907 21.2264 39.815C21.0925 39.7861 20.9853 39.6861 20.9472 39.5547C20.935 39.512 20.6496 38.4983 21.2663 37.4545C22.0059 36.2031 23.688 35.4754 26.2237 35.3209C26.4067 35.3099 26.5707 35.433 26.6107 35.6119C26.6617 35.8426 26.2716 39.2258 23.4421 39.8581L23.4419 39.8582ZM21.6284 39.1337C22.2368 39.2402 22.7908 39.2393 23.2788 39.1303C25.0539 38.7336 25.6298 36.943 25.8036 36.1025C23.7951 36.2929 22.4686 36.8856 21.9083 37.8347C21.6057 38.3476 21.5998 38.8571 21.6284 39.1336L21.6284 39.1337Z" fill="white"/>
<path d="M6.71972 28.0684C4.31141 28.0684 2.14221 26.8444 1.21456 24.9571C0.379593 23.2302 0.615196 20.9182 1.83179 18.9272C2.40693 18.0099 3.09759 17.1706 3.88697 16.4296C4.53221 15.8612 5.10071 15.2111 5.57807 14.4958C6.07232 13.7048 6.6411 12.9629 7.27647 12.2802C7.89606 11.6032 8.64137 11.0533 9.47071 10.6603C10.3794 10.2178 11.3784 9.99194 12.3892 10.0002C13.852 10.0529 15.2599 10.572 16.4069 11.4815C17.5539 12.3912 18.3802 13.6435 18.7651 15.0559C18.8664 15.4715 18.9296 15.8955 18.9541 16.3225C18.9641 16.5183 18.8144 16.6857 18.6187 16.6972C18.4242 16.7094 18.2557 16.5632 18.2405 16.3689C18.2192 15.9864 18.1631 15.6066 18.0728 15.2343C17.728 13.9704 16.988 12.8499 15.9609 12.0364C14.9338 11.2232 13.6735 10.7597 12.3642 10.7137C11.4658 10.708 10.5782 10.9095 9.7703 11.3025C9.02247 11.6629 8.3524 12.1658 7.79728 12.7831C7.19184 13.4311 6.65062 14.1361 6.18104 14.8882C5.67118 15.6573 5.06305 16.3566 4.3721 16.9682C3.62586 17.6592 2.97328 18.4448 2.43109 19.3052C1.57479 20.7074 0.971757 22.8446 1.84587 24.657C2.80203 26.6372 5.12116 27.4435 6.99424 27.3579H6.9944C7.63646 27.3261 8.27232 27.2184 8.88889 27.0368C9.07811 26.9817 9.27626 27.0904 9.33139 27.2794C9.3865 27.4686 9.27787 27.6666 9.0888 27.7219C8.41759 27.9209 7.7255 28.0405 7.0266 28.0787L6.71972 28.0684Z" fill="white"/>
<path d="M10.9008 13.5437C10.7891 13.5447 10.6835 13.493 10.6154 13.4046C10.098 12.7196 9.66986 12.7516 9.63422 12.7552C9.44181 12.7763 9.26772 12.6402 9.24176 12.4483C9.21547 12.2605 9.34099 12.0848 9.52719 12.0488C9.61288 12.0488 10.387 11.9383 11.1719 12.973V12.9728C11.2903 13.1305 11.2583 13.3541 11.1006 13.4723C11.0427 13.5158 10.9731 13.5408 10.9008 13.5437L10.9008 13.5437Z" fill="white"/>
<path d="M9.42472 17.0365C9.3137 17.0354 9.20953 16.9827 9.14295 16.8938C8.82232 16.4541 8.34178 16.1581 7.80501 16.0695C7.61483 16.0455 7.47769 15.8752 7.49457 15.6842C7.51129 15.4998 7.66627 15.3588 7.85136 15.3596C8.59059 15.4636 9.25686 15.861 9.69949 16.462C9.75826 16.5372 9.78438 16.6324 9.77228 16.727C9.76033 16.8215 9.71096 16.9072 9.6353 16.9652C9.57382 17.0094 9.50055 17.0343 9.42473 17.0365L9.42472 17.0365Z" fill="white"/>
<path d="M14.9512 14.7244C14.8389 14.7244 14.7331 14.6715 14.6658 14.5817C14.434 14.2593 14.0836 14.0423 13.6917 13.9787C13.4947 13.9629 13.3477 13.7904 13.3635 13.5934C13.3792 13.3963 13.5517 13.2493 13.7488 13.2651C14.3442 13.3485 14.8808 13.6689 15.2366 14.1535C15.3556 14.3101 15.3253 14.5336 15.1687 14.653C15.1053 14.6988 15.0294 14.7236 14.9512 14.7244H14.9512Z" fill="white"/>
<path d="M4.63979 20.3445C4.52749 20.3445 4.42173 20.2916 4.35435 20.2017C4.12594 19.8774 3.78064 19.6549 3.39102 19.5808C3.20658 19.5641 3.06561 19.4091 3.06641 19.2241C3.08345 19.0296 3.2534 18.8849 3.44805 18.8994C4.04248 18.9831 4.57848 19.3019 4.93588 19.7842C4.99386 19.8602 5.01887 19.9561 5.00548 20.0507C4.99211 20.1452 4.9413 20.2304 4.86452 20.2872C4.7981 20.3307 4.71894 20.351 4.63978 20.3444L4.63979 20.3445Z" fill="white"/>
<path d="M12.4894 28.4537C11.925 28.4564 11.3615 28.4099 10.8053 28.3145C9.52851 28.1158 8.33659 27.552 7.37293 26.6911C6.40944 25.7904 5.80098 24.5738 5.65826 23.2624C5.5157 21.9511 5.84829 20.632 6.59578 19.5453C7.34312 18.4583 8.45586 17.6758 9.73137 17.3397C10.5055 17.1699 11.2976 17.0968 12.0897 17.122C13.0743 17.122 14.0057 17.1041 14.837 16.726C16.2641 16.0731 17.8196 15.5664 19.5678 16.2478H19.5679C21.1912 16.9025 22.381 18.3239 22.7397 20.037C23.1428 22.0672 22.2367 24.3719 20.4349 25.9132C19.0078 27.1406 17.0169 27.9434 14.5477 28.2965C13.866 28.3965 13.178 28.4489 12.489 28.4535L12.4894 28.4537ZM17.8661 16.6331C16.9139 16.6809 15.9831 16.9329 15.1366 17.3716C14.1626 17.8176 13.1136 17.8282 12.0967 17.8354C11.3637 17.8108 10.6306 17.8755 9.91315 18.0281C8.80135 18.318 7.83072 18.9976 7.17814 19.9433C6.52557 20.889 6.23438 22.0375 6.35802 23.1799C6.48146 24.3223 7.01137 25.3821 7.85095 26.1664C8.71299 26.9308 9.77936 27.4268 10.9193 27.5936C12.0846 27.772 13.2708 27.7648 14.4337 27.5722C16.7707 27.2368 18.6296 26.5019 19.9605 25.353C21.5696 23.9758 22.3832 21.9385 22.0299 20.1581C21.7204 18.6821 20.6953 17.4576 19.2968 16.8935C18.8405 16.7177 18.3551 16.6294 17.8661 16.6331L17.8661 16.6331Z" fill="white"/>
<path d="M18.6036 19.9373C18.4065 19.9373 18.2469 19.7775 18.2469 19.5805C18.2521 19.0386 18.0476 18.5157 17.676 18.1211C17.6002 18.0601 17.5526 17.9708 17.5443 17.8738C17.536 17.7768 17.5675 17.6807 17.6319 17.6076C17.6962 17.5345 17.7875 17.4909 17.8848 17.4869C17.982 17.4828 18.0767 17.5186 18.1468 17.586C18.6764 18.1135 18.97 18.833 18.9604 19.5805C18.9604 19.6751 18.9228 19.7659 18.8559 19.8328C18.7889 19.8997 18.6983 19.9373 18.6036 19.9373L18.6036 19.9373Z" fill="white"/>
<path d="M17.7941 24.2899C17.5971 24.2899 17.4373 24.1302 17.4373 23.9331C17.4443 23.3903 17.2381 22.8663 16.8628 22.4738C16.791 22.4112 16.747 22.3225 16.741 22.2272C16.7349 22.132 16.7672 22.0385 16.8308 21.9673C16.9619 21.8208 17.1869 21.8079 17.3338 21.9386C17.8645 22.4643 18.1593 23.1826 18.1509 23.9296C18.1509 24.0242 18.1133 24.1149 18.0464 24.1819C17.9795 24.2488 17.8887 24.2864 17.7941 24.2864L17.7941 24.2899Z" fill="white"/>
<path d="M14.2973 28.279C14.2664 28.2827 14.2353 28.2827 14.2044 28.279C14.1131 28.254 14.0354 28.1936 13.9886 28.1114C13.9418 28.0291 13.9296 27.9315 13.9547 27.8402C14.1109 27.319 14.0545 26.7571 13.7978 26.2775C13.7406 26.198 13.7184 26.0986 13.7368 26.0024C13.7549 25.9062 13.8119 25.8218 13.8943 25.7687C13.9766 25.7159 14.0771 25.6991 14.1722 25.7224C14.2673 25.7457 14.3486 25.8071 14.3971 25.8922C14.7652 26.543 14.8541 27.3154 14.6434 28.0329C14.5946 28.1822 14.4542 28.282 14.2973 28.279L14.2973 28.279Z" fill="white"/>
<path d="M11.3289 21.9816C11.1319 21.9816 10.9721 21.8219 10.9721 21.6249C10.9785 21.0811 10.7724 20.5562 10.3978 20.162C10.3267 20.0991 10.2837 20.0105 10.278 19.9159C10.2723 19.8212 10.3044 19.7281 10.3674 19.6573C10.4984 19.5094 10.7245 19.4959 10.8723 19.6268C11.4019 20.1544 11.6953 20.8738 11.6857 21.6213C11.6857 21.716 11.6481 21.8067 11.5812 21.8736C11.5143 21.9405 11.4235 21.9781 11.3289 21.9781L11.3289 21.9816Z" fill="white"/>
</svg>
