<svg width="16" height="14" viewBox="0 0 16 14" fill="none" xmlns="http://www.w3.org/2000/svg">
<g opacity="0.5">
<path d="M13.831 13.0659C13.831 13.3277 13.6216 13.5372 13.3597 13.5372H2.92105C2.65926 13.5372 2.4497 13.3278 2.4497 13.0659L2.44983 7.84655C2.43241 7.58476 2.62444 7.35779 2.88622 7.35779C3.14801 7.34037 3.37499 7.53239 3.37499 7.79418V7.84654V12.5946H12.8885V7.84654C12.8711 7.58475 13.0631 7.35778 13.3249 7.35778C13.5867 7.35778 13.8136 7.53239 13.8136 7.79417V7.84653V13.0659L13.831 13.0659Z" fill="#414141"/>
<path d="M15.856 8.17818C15.6814 8.35279 15.3847 8.3702 15.1927 8.17818L8.14046 1.12598L1.08826 8.17818C0.896238 8.35279 0.599493 8.35279 0.424902 8.17818C0.250293 8.00357 0.250293 7.70684 0.424902 7.51482L7.80877 0.130957C8.00079 -0.0436523 8.28011 -0.0436523 8.47212 0.130957L15.856 7.51482C16.048 7.68943 16.048 7.98616 15.856 8.17818H15.856Z" fill="#414141"/>
</g>
</svg>
