<svg width="5" height="5" viewBox="0 0 5 5" fill="none" xmlns="http://www.w3.org/2000/svg">
<path d="M3.47502 3.45009H3.14993V1.17514C3.14993 1.11008 3.14993 1.07766 3.11751 1.0126C3.14993 0.882695 3.14993 0.784987 3.11751 0.655086C2.98761 0.329993 2.6301 0.135034 2.30501 0.232517L1.32995 0.557609C1.00486 0.68751 0.809902 1.04502 0.907385 1.37011C1.00487 1.63014 1.2649 1.8251 1.52494 1.8251C1.59001 1.8251 1.65484 1.8251 1.71991 1.79268L1.84981 1.76026L1.85003 3.45009H1.52494C1.16743 3.45009 0.875 3.74253 0.875 4.10003C0.875 4.45754 1.16745 4.74997 1.52494 4.74997H3.47506C3.83257 4.74997 4.125 4.45752 4.125 4.10003C4.125 3.74252 3.83255 3.45009 3.47506 3.45009H3.47502Z" fill="white"/>
</svg>
