<svg width="17" height="16" viewBox="0 0 17 16" fill="none" xmlns="http://www.w3.org/2000/svg">
<g opacity="0.5">
<path d="M8.18828 12.2081C8.3296 12.2081 8.46521 12.1519 8.56513 12.052C8.66505 11.9521 8.7212 11.8165 8.7212 11.6752V11.073C9.14516 10.9441 9.5094 10.6685 9.7486 10.2954C9.98794 9.92238 10.0866 9.4764 10.0268 9.03725C9.94714 8.59605 9.71732 8.19588 9.37652 7.90457C9.03561 7.61325 8.60462 7.44861 8.1563 7.4385C7.95134 7.42375 7.75947 7.33203 7.61908 7.18191C7.47883 7.03167 7.40033 6.83408 7.39961 6.62853C7.39961 6.41881 7.48253 6.21766 7.63027 6.06884C7.77801 5.92015 7.97858 5.83581 8.18828 5.83438C8.38836 5.8414 8.57855 5.92312 8.72119 6.06361C8.79399 6.13819 8.85347 6.22467 8.89701 6.31936C8.94209 6.41429 9.01418 6.49375 9.10423 6.54775C9.19439 6.60188 9.29836 6.62805 9.40328 6.62317C9.56732 6.61663 9.7191 6.53491 9.81487 6.40168C9.91063 6.26845 9.93966 6.09846 9.89362 5.94096C9.79715 5.70353 9.65405 5.48786 9.47265 5.30682C9.26138 5.09984 9.00383 4.94639 8.7212 4.8592V4.23042C8.7212 4.03997 8.61962 3.86405 8.45474 3.76888C8.28987 3.67372 8.0867 3.67372 7.92183 3.76888C7.75696 3.86405 7.65537 4.03998 7.65537 4.23042V4.84328C7.15077 4.97615 6.73229 5.32814 6.51495 5.80253C6.23922 6.38207 6.27716 7.06213 6.61559 7.60744C6.95401 8.15285 7.54652 8.48877 8.18831 8.499C8.39933 8.50328 8.60024 8.59083 8.74705 8.7425C8.89384 8.89429 8.97461 9.09794 8.97175 9.30907C8.97175 9.51688 8.8892 9.71613 8.74229 9.86303C8.59538 10.0099 8.39613 10.0925 8.18833 10.0925C8.03214 10.0936 7.8793 10.0473 7.74987 9.95974C7.62045 9.87231 7.52065 9.74752 7.46355 9.60217C7.42049 9.50617 7.34983 9.42504 7.26073 9.36914C7.17151 9.31311 7.06791 9.2848 6.96263 9.28777C6.78991 9.28955 6.62884 9.37496 6.53036 9.51676C6.43186 9.65867 6.40831 9.83949 6.46707 10.0019C6.68345 10.5173 7.11955 10.9084 7.65542 11.0677V11.6646C7.65256 11.8077 7.7074 11.9461 7.80768 12.0484C7.90796 12.1506 8.04512 12.2081 8.18834 12.2081L8.18828 12.2081Z" fill="#414141"/>
<path d="M7.80422 0.010161C5.68422 0.0610744 3.67122 0.952055 2.20798 2.48716C0.744739 4.02227 -0.0486086 6.07568 0.00230784 8.19578C0.0532213 10.3158 0.944202 12.3288 2.47931 13.792C4.01442 15.2552 6.06782 16.0486 8.18792 15.9977C9.60326 16.0058 10.9955 15.638 12.2223 14.9319C12.3551 14.8592 12.4508 14.7334 12.4854 14.5859C12.5199 14.4386 12.4901 14.2833 12.4034 14.1591C12.3285 14.0496 12.2154 13.972 12.0863 13.9414C11.9572 13.9109 11.8214 13.9297 11.7053 13.9939C10.3092 14.8149 8.66978 15.121 7.07163 14.8588C5.47349 14.5965 4.01756 13.7827 2.95721 12.5587C1.89673 11.3347 1.29849 9.77779 1.26661 8.15863C1.23485 6.53942 1.7712 4.96021 2.78268 3.69522C3.79428 2.43038 5.21687 1.55999 6.80362 1.23512C8.39026 0.910131 10.0407 1.15149 11.4677 1.91686C12.8949 2.68234 14.0088 3.92361 14.6159 5.42498C15.2231 6.92644 15.2849 8.59325 14.7909 10.1354C14.7409 10.2712 14.7483 10.4217 14.8115 10.552C14.8746 10.6822 14.988 10.7813 15.1256 10.8261C15.2633 10.8711 15.4134 10.858 15.5411 10.7901C15.669 10.7221 15.7637 10.605 15.8034 10.4658C16.3395 8.81712 16.3252 7.03872 15.7625 5.39917C15.1997 3.75936 14.1193 2.34692 12.6838 1.37488C11.2483 0.402772 9.53558 -0.0762448 7.80436 0.00987473L7.80422 0.010161Z" fill="#414141"/>
</g>
</svg>
