<svg width="15" height="14" viewBox="0 0 15 14" fill="none" xmlns="http://www.w3.org/2000/svg">
<path opacity="0.5" d="M4.15168 0.00385039C5.47459 -0.00131733 6.7199 0.617044 7.50006 1.66652C8.19481 0.735894 9.25859 0.137854 10.4276 0.0210181C11.5966 -0.0959562 12.7612 0.279043 13.6327 1.05312C14.5044 1.82708 15.0011 2.92755 15 4.08166C15 8.26442 10.5321 11.774 7.83211 13.8946C7.74099 13.9658 7.62703 14.0032 7.51068 13.9998C7.37616 14.0017 7.24533 13.9569 7.14095 13.8735C4.46236 11.7689 0 8.26475 0 4.08168C0.00143528 3.00072 0.439347 1.96426 1.21754 1.19993C1.99589 0.43547 3.05107 0.00540788 4.1518 0.00399479L4.15168 0.00385039ZM7.50006 12.8104C10.0393 10.811 13.9287 7.61202 13.9287 4.08169V4.08157C13.9202 3.14294 13.4685 2.26141 12.7061 1.69533C11.9438 1.12913 10.957 0.94275 10.0351 1.19055C9.1133 1.43836 8.36079 2.09241 7.99822 2.96092C7.94524 3.09258 7.84061 3.19769 7.70776 3.25254C7.5749 3.30738 7.42519 3.30738 7.29235 3.25254C7.1595 3.19769 7.05486 3.09258 7.00189 2.96092C6.63931 2.09241 5.8868 1.43836 4.96497 1.19055C4.04314 0.942744 3.05635 1.12913 2.29404 1.69533C1.53161 2.26141 1.07995 3.14294 1.07144 4.08157C1.07144 7.60168 4.93411 10.7899 7.50004 12.8106L7.50006 12.8104Z" fill="#414141"/>
</svg>
