<svg width="16" height="18" viewBox="0 0 16 18" fill="none" xmlns="http://www.w3.org/2000/svg">
<path d="M6.99079 0.913073C3.44782 0.672188 0.365276 3.36225 0.124391 6.90522C-0.116495 10.4482 2.57373 13.5307 6.11654 13.7716C7.64885 13.8758 9.09319 13.4299 10.2608 12.6057L14.3157 17.2522C14.5577 17.5295 14.9805 17.5582 15.2578 17.3162C15.5352 17.0742 15.5634 16.6584 15.3214 16.3809L11.2665 11.7344C12.243 10.6888 12.8788 9.31334 12.9831 7.77936C13.224 4.23639 10.5338 1.15384 6.99099 0.912968L6.99079 0.913073ZM6.90035 2.24327C9.72433 2.43527 11.8447 4.86508 11.6527 7.68894C11.4607 10.5128 9.03085 12.6332 6.20699 12.4413C3.38312 12.2493 1.26268 9.81945 1.45467 6.99558C1.64667 4.17172 4.07648 2.05128 6.90035 2.24327Z" fill="white"/>
</svg>
