<svg width="6" height="7" viewBox="0 0 6 7" fill="none" xmlns="http://www.w3.org/2000/svg">
<path d="M3.70612 3.49997L5.85335 0.995896H5.85341C5.97974 0.848509 6.02912 0.633712 5.98286 0.43238C5.9366 0.231115 5.80173 0.0738442 5.62915 0.019888C5.45651 -0.0340564 5.27232 0.023532 5.14594 0.170854L2.9987 2.67509L0.851471 0.173852C0.722744 0.0453369 0.546985 0.00153908 0.384499 0.0576341C0.222014 0.113661 0.0949114 0.261898 0.0468587 0.451386C-0.00123978 0.640873 0.0363129 0.845854 0.146515 0.995961L2.29132 3.50003L0.146515 6.0041C0.0201312 6.15149 -0.0291971 6.36629 0.017063 6.56762C0.0633202 6.76888 0.198132 6.92616 0.370773 6.98011C0.543415 7.03406 0.727598 6.97647 0.853986 6.82915L2.99879 4.32491L5.14602 6.82898V6.82904C5.27241 6.97637 5.45659 7.03396 5.62924 6.98001C5.80182 6.92607 5.93668 6.76878 5.98295 6.56752C6.0292 6.36619 5.97982 6.15139 5.85349 6.004L3.70612 3.49997Z" fill="#545C63"/>
</svg>
