<svg width="16" height="16" viewBox="0 0 16 16" fill="none" xmlns="http://www.w3.org/2000/svg">
<g opacity="0.5">
<path d="M6.99063 4.15013C6.99063 3.91042 7.08575 3.68063 7.25527 3.51111C7.42478 3.34172 7.65457 3.24648 7.89428 3.24648C8.13387 3.24648 8.36378 3.34172 8.53317 3.51124C8.70269 3.68063 8.7978 3.91054 8.7978 4.15012C8.7978 4.38983 8.70269 4.61962 8.53317 4.78914C8.36378 4.95853 8.13387 5.05377 7.89416 5.05377C7.65457 5.05377 7.42466 4.95853 7.25527 4.78914C7.08575 4.61962 6.99063 4.38984 6.99063 4.15012V4.15013ZM9.30724 11.8581C9.05153 11.7761 8.73892 11.5357 8.73892 10.85V6.34841C8.73905 6.31605 8.72615 6.28517 8.70333 6.26223C8.68051 6.23941 8.64964 6.22651 8.61727 6.22651H6.82289C6.70149 6.22651 6.58517 6.27475 6.49946 6.36057C6.41365 6.44638 6.36553 6.5627 6.36553 6.684C6.3664 6.78234 6.39852 6.87782 6.45729 6.95657C6.51608 7.03544 6.59854 7.09335 6.69254 7.12211C6.94825 7.20408 7.26086 7.44453 7.26086 8.13018V10.8502C7.26086 11.5358 6.94823 11.7763 6.69241 11.8582C6.59842 11.887 6.51595 11.9449 6.45717 12.0238C6.39839 12.1025 6.36627 12.198 6.3654 12.2964C6.3654 12.4176 6.41364 12.534 6.49933 12.6198C6.58515 12.7055 6.70147 12.7537 6.82286 12.7537H9.17676C9.29817 12.7537 9.41449 12.7055 9.50029 12.6198C9.58598 12.534 9.63422 12.4177 9.63422 12.2964C9.63335 12.198 9.60123 12.1025 9.54245 12.0238C9.48367 11.9449 9.40121 11.887 9.30721 11.8582L9.30724 11.8581ZM15.9999 7.99997C15.9999 10.1217 15.157 12.1565 13.6568 13.6568C12.1565 15.157 10.1216 15.9999 7.99997 15.9999C5.87838 15.9999 3.84346 15.157 2.34314 13.6568C0.842889 12.1565 0 10.1216 0 7.99997C0 5.87838 0.842889 3.84346 2.34314 2.34314C3.8434 0.842889 5.87838 0 7.99997 0C10.121 0.00235616 12.1543 0.845968 13.6543 2.34575C15.154 3.84562 15.9976 5.87908 16 8.00003L15.9999 7.99997ZM14.9332 7.99997C14.9332 6.16117 14.2028 4.39775 12.9026 3.09743C11.6022 1.79721 9.8387 1.06679 8.00003 1.06679C6.16137 1.06679 4.39781 1.79721 3.09749 3.09743C1.79727 4.39778 1.06686 6.1613 1.06686 7.99997C1.06686 9.83864 1.79727 11.6022 3.09749 12.9025C4.39784 14.2027 6.16137 14.9331 8.00003 14.9331C9.83819 14.9312 11.6007 14.2 12.9003 12.9002C14.2002 11.6004 14.9314 9.83803 14.9333 7.99984L14.9332 7.99997Z" fill="#414141"/>
</g>
</svg>
