<svg width="22" height="21" viewBox="0 0 22 21" fill="none" xmlns="http://www.w3.org/2000/svg">
<path d="M6.8901 16.5187C5.65171 16.5187 4.64941 17.521 4.64941 18.7594C4.64941 19.9978 5.65171 21.0001 6.8901 21.0001C8.1285 21.0001 9.13079 19.9978 9.13079 18.7594C9.12597 17.521 8.12369 16.5187 6.8901 16.5187ZM6.8901 20.0364C6.18656 20.0364 5.61316 19.4629 5.61316 18.7594C5.61316 18.0559 6.1866 17.4825 6.8901 17.4825C7.5936 17.4825 8.16705 18.0559 8.16705 18.7594C8.16705 19.4629 7.5936 20.0364 6.8901 20.0364Z" fill="white"/>
<path d="M16.4365 16.5187C15.1981 16.5187 14.1958 17.521 14.1958 18.7594C14.1958 19.9978 15.1981 21.0001 16.4365 21.0001C17.6749 21.0001 18.6772 19.9978 18.6772 18.7594C18.6772 17.521 17.6749 16.5187 16.4365 16.5187ZM16.4365 20.0364C15.7329 20.0364 15.1595 19.4629 15.1595 18.7594C15.1595 18.0559 15.733 17.4825 16.4365 17.4825C17.14 17.4825 17.7134 18.0559 17.7134 18.7594C17.7134 19.4629 17.14 20.0364 16.4365 20.0364Z" fill="white"/>
<path d="M21.2456 3.16589C21.2119 3.15625 21.1781 3.15144 21.1396 3.15144L4.75131 2.90568L4.30317 1.54199C3.99959 0.621598 3.14187 0 2.17328 0H0.481894C0.216865 0 0 0.216843 0 0.481894C0 0.746944 0.216843 0.963788 0.481894 0.963788H2.17328C2.72743 0.963788 3.21412 1.32038 3.38758 1.84563L3.95617 3.56112L6.57756 11.4781L6.34144 12.0516C5.86919 13.1888 6.41372 14.4947 7.55093 14.9669C7.8256 15.0777 8.11473 15.1356 8.41348 15.1356H18.1954C18.4605 15.1356 18.6773 14.9187 18.6773 14.6537C18.6773 14.3886 18.4605 14.1718 18.1954 14.1718H8.41348C7.71478 14.1766 7.14133 13.6128 7.13653 12.9141C7.13653 12.7454 7.17026 12.5768 7.23291 12.4177L7.41602 11.9696L18.0029 10.8854C19.1642 10.7649 20.1183 9.92646 20.393 8.79406L21.6025 3.74426C21.6651 3.48887 21.5061 3.22867 21.2459 3.16602L21.2456 3.16589ZM19.4579 8.5677C19.2796 9.30495 18.658 9.84465 17.9062 9.92175L7.43037 10.9963L5.07404 3.87411L20.523 4.1054L19.4579 8.5677Z" fill="white"/>
</svg>
