<svg width="15" height="16" viewBox="0 0 15 16" fill="none" xmlns="http://www.w3.org/2000/svg">
<g opacity="0.5">
<path fill-rule="evenodd" clip-rule="evenodd" d="M7.04256 6.16394L6.13841 8.21486C6.07009 8.36968 6.07193 8.54621 6.14276 8.69999C6.21345 8.85349 6.34707 8.96948 6.50913 9.01779L10.7043 10.2732C11.0161 10.3666 11.3452 10.1892 11.4382 9.87732C11.5318 9.56558 11.3544 9.23645 11.0424 9.1434L7.48752 8.07943L8.12219 6.6396C8.25331 6.34168 8.11811 5.99347 7.82033 5.86183C7.52241 5.73071 7.17393 5.86604 7.04283 6.16396L7.04256 6.16394Z" fill="#414141"/>
<path fill-rule="evenodd" clip-rule="evenodd" d="M1.54821 12.3718L0.647866 12.2824C0.324144 12.2503 0.0351697 12.4874 0.00291718 12.8111C-0.0292045 13.1352 0.207628 13.4242 0.53173 13.4563L2.87925 13.6891C3.20337 13.7212 3.49208 13.4846 3.5242 13.1603L3.75722 10.8127C3.78934 10.4889 3.55224 10.1999 3.22841 10.1678C2.90442 10.1357 2.61544 10.3724 2.58319 10.6965L2.48827 11.6563C0.867826 9.24864 1.12204 5.95131 3.25023 3.82305C5.66688 1.40613 9.5912 1.40613 12.0079 3.82305C14.4249 6.23969 14.4249 10.164 12.0079 12.5808C10.1012 14.4875 7.25635 14.89 4.95351 13.7884C4.65981 13.6476 4.30752 13.772 4.16705 14.0657C4.02645 14.3592 4.15086 14.7119 4.44456 14.8522C7.18559 16.1637 10.5722 15.6847 12.8423 13.415C15.7192 10.5377 15.7192 5.86616 12.8423 2.98871C9.96506 0.111836 5.29351 0.111836 2.41606 2.98871C-0.134751 5.53989 -0.423978 9.50088 1.54824 12.3716L1.54821 12.3718Z" fill="#414141"/>
</g>
</svg>
