<svg width="16" height="16" viewBox="0 0 16 16" fill="none" xmlns="http://www.w3.org/2000/svg">
<g opacity="0.5">
<path fill-rule="evenodd" clip-rule="evenodd" d="M9.31007 1.39461C9.23443 1.23041 9.08242 1.11427 8.90407 1.08413C8.0667 0.943961 7.21198 0.943961 6.37462 1.08413C6.19626 1.11427 6.04426 1.23041 5.96862 1.39461L5.542 2.3202C5.00315 2.49917 4.48943 2.74681 4.01329 3.05631C4.01365 3.05631 3.02377 2.81256 3.02377 2.81256C2.84809 2.76938 2.66255 2.81586 2.52785 2.93663C1.89627 3.50366 1.36316 4.17209 0.950821 4.9143C0.863106 5.07228 0.858959 5.26358 0.940452 5.42533L1.39817 6.33589C1.20225 6.86875 1.07537 7.42457 1.02047 7.98991L0.212992 8.61159C0.0697707 8.722 -0.00977114 8.89608 0.000962892 9.07677C0.0503701 9.92416 0.240563 10.7576 0.563618 11.5428C0.632422 11.71 0.779429 11.8324 0.956564 11.8696L1.95401 12.0795C2.24863 12.5648 2.60412 13.0108 3.01183 13.4059L2.99427 14.425C2.99134 14.6059 3.07796 14.7764 3.22557 14.8807C3.91911 15.3704 4.68939 15.7413 5.50458 15.9782C5.67842 16.0288 5.86557 15.9899 6.00524 15.8749L6.79113 15.2259C7.354 15.2983 7.92434 15.2983 8.48759 15.2259L9.27348 15.8749C9.41317 15.9899 9.60031 16.0288 9.77414 15.9782C10.5893 15.7413 11.3596 15.3704 12.0532 14.8807C12.2008 14.7764 12.2874 14.6059 12.2845 14.425L12.2669 13.4059C12.6746 13.0108 13.0301 12.5651 13.3247 12.0795L14.3222 11.8696C14.4993 11.8324 14.6463 11.71 14.7151 11.5428C15.0382 10.7576 15.2283 9.92416 15.2778 9.07677C15.2885 8.8961 15.209 8.72202 15.0657 8.61159L14.2583 7.98991C14.2036 7.42482 14.0765 6.86878 13.8805 6.33589L14.3383 5.42533C14.4198 5.26356 14.4156 5.07226 14.3279 4.9143C13.9156 4.17206 13.3824 3.50366 12.7509 2.93663C12.6162 2.81586 12.4306 2.76938 12.2549 2.81256L11.2651 3.05631C10.7893 2.74681 10.2756 2.4994 9.73671 2.3202L9.3101 1.39461H9.31007ZM8.44135 2.12123L8.84588 2.9985C8.912 3.14221 9.03741 3.25042 9.18967 3.29471C9.78184 3.4666 10.3409 3.73597 10.8445 4.09159C10.9741 4.18309 11.1367 4.21371 11.2905 4.17577L12.2283 3.94508C12.6117 4.32057 12.9476 4.74171 13.2285 5.19906C13.2285 5.19942 12.7948 6.06206 12.7948 6.06206C12.7237 6.2037 12.7175 6.36924 12.7776 6.51575C13.0124 7.08571 13.1506 7.69106 13.1864 8.3064C13.1957 8.46463 13.2731 8.61115 13.3987 8.70765L14.1639 9.29701C14.1092 9.831 13.9893 10.3563 13.807 10.861C13.8068 10.861 12.8618 11.06 12.8618 11.06C12.7069 11.0924 12.5734 11.1909 12.4967 11.3293C12.1972 11.8683 11.81 12.3536 11.3511 12.7653C11.2333 12.8715 11.1672 13.0231 11.17 13.1816L11.1863 14.147C10.7346 14.4375 10.2493 14.6711 9.74104 14.843C9.7408 14.843 8.99613 14.2281 8.99613 14.2281C8.87389 14.1274 8.71407 14.0844 8.5578 14.1107C7.94977 14.2125 7.32881 14.2125 6.7208 14.1107C6.56453 14.0844 6.40472 14.1274 6.28248 14.2281L5.53781 14.843C5.02934 14.6711 4.54405 14.4375 4.09254 14.1473C4.0923 14.147 4.10864 13.1816 4.10864 13.1816C4.11145 13.0231 4.04533 12.8715 3.92748 12.7653C3.46867 12.3536 3.08144 11.8683 2.78193 11.3293C2.7052 11.1909 2.57174 11.0924 2.41681 11.06L1.47183 10.861C1.28933 10.3563 1.16941 9.831 1.11474 9.29701L1.87989 8.70765C2.00555 8.61116 2.08289 8.46464 2.09217 8.3064C2.12803 7.69106 2.26625 7.08571 2.50098 6.51575C2.56112 6.36923 2.5549 6.20369 2.48378 6.06206L2.05007 5.19943C2.33103 4.74171 2.66688 4.32057 3.0503 3.94508L3.98807 4.17577C4.14191 4.21371 4.30453 4.18309 4.43408 4.09159C4.93768 3.73597 5.49677 3.4666 6.08894 3.29471C6.24119 3.25042 6.3666 3.14221 6.43273 2.9985L6.83726 2.12123C7.36978 2.05572 7.90876 2.05572 8.44125 2.12123H8.44135Z" fill="#414141"/>
<path fill-rule="evenodd" clip-rule="evenodd" d="M7.63803 5.2915C5.79503 5.2915 4.29883 6.78765 4.29883 8.6307C4.29883 10.4738 5.79497 11.9699 7.63803 11.9699C9.48109 11.9699 10.9772 10.4738 10.9772 8.6307C10.9772 6.78765 9.48109 5.2915 7.63803 5.2915ZM7.63803 6.38458C8.87761 6.38458 9.88409 7.39106 9.88409 8.63064C9.88409 9.87022 8.87761 10.8767 7.63803 10.8767C6.39845 10.8767 5.39197 9.87022 5.39197 8.63064C5.39197 7.39106 6.39845 6.38458 7.63803 6.38458Z" fill="#414141"/>
</g>
</svg>
