<svg width="14" height="14" viewBox="0 0 14 14" fill="none" xmlns="http://www.w3.org/2000/svg">
<path d="M8.64761 6.99993L13.6578 1.99179H13.658C13.9527 1.69702 14.0679 1.26742 13.96 0.86476C13.8521 0.46223 13.5374 0.147688 13.1347 0.0397761C12.7319 -0.0681129 12.3021 0.0470641 12.0072 0.341707L6.99697 5.35018L1.98677 0.347704C1.6864 0.0906738 1.2763 0.00307816 0.897165 0.115268C0.518033 0.227322 0.22146 0.523795 0.109337 0.902771C-0.00289281 1.28175 0.0847301 1.69171 0.341869 1.99192L5.34641 7.00006L0.341869 12.0082C0.0469729 12.303 -0.0681266 12.7326 0.0398136 13.1352C0.147747 13.5378 0.462308 13.8523 0.865138 13.9602C1.26797 14.0681 1.69773 13.9529 1.99264 13.6583L6.99718 8.64982L12.0074 13.658V13.6581C12.3023 13.9527 12.7321 14.0679 13.1349 13.96C13.5376 13.8521 13.8523 13.5376 13.9602 13.135C14.0681 12.7324 13.9529 12.3028 13.6582 12.008L8.64761 6.99993Z" fill="#AC6ABE"/>
</svg>
